<svg width="24" height="22" viewBox="0 0 24 22" fill="none" xmlns="http://www.w3.org/2000/svg">
<path fill-rule="evenodd" clip-rule="evenodd" d="M6 0C2.68629 0 0 2.68629 0 6V15V17V22C0 22 5.23188 17.7363 9.31876 17H18C21.3137 17 24 14.3137 24 11V6C24 2.68629 21.3137 0 18 0H6ZM10.4348 8.5C10.4348 9.60457 9.50042 10.5 8.34783 10.5C7.19523 10.5 6.26087 9.60457 6.26087 8.5C6.26087 7.39543 7.19523 6.5 8.34783 6.5C9.50042 6.5 10.4348 7.39543 10.4348 8.5ZM15.1304 10.5C16.283 10.5 17.2174 9.60457 17.2174 8.5C17.2174 7.39543 16.283 6.5 15.1304 6.5C13.9778 6.5 13.0435 7.39543 13.0435 8.5C13.0435 9.60457 13.9778 10.5 15.1304 10.5Z" fill="currentColor"/>
</svg>
