<svg width="24" height="22" viewBox="0 0 24 22" fill="none" xmlns="http://www.w3.org/2000/svg">
<path fill-rule="evenodd" clip-rule="evenodd" d="M17.625 0C16.3227 0 15.1287 0.416127 14.0762 1.23685C13.0673 2.02368 12.3955 3.02585 12 3.75459C11.6045 3.0258 10.9327 2.02368 9.92377 1.23685C8.87133 0.416127 7.67733 0 6.375 0C2.74069 0 0 2.99744 0 6.97234C0 11.2666 3.4192 14.2047 8.59542 18.6525C9.47442 19.4079 10.4707 20.264 11.5063 21.1772C11.6428 21.2977 11.8181 21.3641 12 21.3641C12.1819 21.3641 12.3572 21.2977 12.4937 21.1772C13.5293 20.264 14.5256 19.4078 15.4051 18.6521C20.5808 14.2047 24 11.2666 24 6.97234C24 2.99744 21.2593 0 17.625 0Z" fill="currentColor"/>
</svg>
