<svg width="20" height="22" viewBox="0 0 20 22" fill="none" xmlns="http://www.w3.org/2000/svg">
<path d="M9.29136 0.711726L0.582722 9.45823C0.209524 9.83305 0 10.3404 0 10.8694V20.5C0 21.3284 0.671572 22 1.5 22H5.66667C6.21895 22 6.66667 21.5523 6.66667 21V15.2899C6.66667 13.4489 8.15905 11.9565 10 11.9565C11.8409 11.9565 13.3333 13.4489 13.3333 15.2899V21C13.3333 21.5523 13.781 22 14.3333 22H18.5C19.3284 22 20 21.3284 20 20.5V10.8694C20 10.3404 19.7905 9.83305 19.4173 9.45823L10.7086 0.711726C10.3178 0.319154 9.68223 0.319155 9.29136 0.711726Z" fill="currentColor"/>
</svg>
