<svg width="24" height="22" viewBox="0 0 24 22" fill="none" xmlns="http://www.w3.org/2000/svg">
<path d="M3.99 0C4.52043 0 5.02914 0.210714 5.40421 0.585786C5.77929 0.960859 5.99 1.46957 5.99 2V20C5.99 20.5304 5.77929 21.0391 5.40421 21.4142C5.02914 21.7893 4.52043 22 3.99 22H2C1.46957 22 0.960859 21.7893 0.585786 21.4142C0.210714 21.0391 0 20.5304 0 20V2C0 1.46957 0.210714 0.960859 0.585786 0.585786C0.960859 0.210714 1.46957 0 2 0H3.99ZM10.99 0C11.5204 0 12.0291 0.210714 12.4042 0.585786C12.7793 0.960859 12.99 1.46957 12.99 2V20C12.99 20.5304 12.7793 21.0391 12.4042 21.4142C12.0291 21.7893 11.5204 22 10.99 22H8.995C8.46457 22 7.95586 21.7893 7.58079 21.4142C7.20571 21.0391 6.995 20.5304 6.995 20V2C6.995 1.46957 7.20571 0.960859 7.58079 0.585786C7.95586 0.210714 8.46457 0 8.995 0H10.99ZM20.07 3.543L23.93 19.026C24.0579 19.5408 23.9764 20.0853 23.7032 20.5399C23.43 20.9946 22.9876 21.3223 22.473 21.451L20.51 21.941C20.2551 22.0045 19.9902 22.0171 19.7304 21.9781C19.4707 21.9392 19.2211 21.8495 18.996 21.7141C18.7709 21.5787 18.5747 21.4003 18.4185 21.1891C18.2624 20.9778 18.1494 20.7379 18.086 20.483L14.226 5C14.1624 4.74517 14.1495 4.4803 14.1883 4.22052C14.227 3.96073 14.3165 3.71112 14.4517 3.48594C14.5869 3.26075 14.7652 3.06441 14.9763 2.90811C15.1874 2.75181 15.4272 2.63862 15.682 2.575L17.645 2.086C17.8999 2.02238 18.1648 2.0096 18.4247 2.0484C18.6845 2.0872 18.9342 2.17681 19.1593 2.31211C19.3845 2.44742 19.5809 2.62576 19.7371 2.83696C19.8934 3.04816 20.0065 3.28807 20.07 3.543Z" fill="currentColor"/>
</svg>
