<svg width="24" height="24" viewBox="0 0 24 24" fill="none" xmlns="http://www.w3.org/2000/svg">
<path d="M22.471 15.4888L22.471 15.4888C24.3753 9.71534 21.2327 3.46818 15.4473 1.54119L22.471 15.4888ZM22.471 15.4888C20.5673 21.2615 14.339 24.3838 8.55417 22.4589L22.471 15.4888ZM8.554 22.4588C2.76732 20.5318 -0.375231 14.286 1.52898 8.51134L8.554 22.4588ZM1.52904 8.51117C3.43405 2.7384 9.66377 -0.383739 15.4471 1.54113L1.52904 8.51117Z" stroke="transparent" stroke-width="1.94494"/>
<mask id="path-2-inside-1" fill="white">
<path fill-rule="evenodd" clip-rule="evenodd" d="M4.36426 19.8905C5.10585 16.2406 8.24042 13.5 11.9948 13.5C15.7673 13.5 18.9141 16.2673 19.6359 19.9438C16.7935 22.6706 12.5686 23.7671 8.55968 22.4331C6.93425 21.8918 5.51787 21.0087 4.36426 19.8905Z"/>
</mask>
<path fill-rule="evenodd" clip-rule="evenodd" d="M4.36426 19.8905C5.10585 16.2406 8.24042 13.5 11.9948 13.5C15.7673 13.5 18.9141 16.2673 19.6359 19.9438C16.7935 22.6706 12.5686 23.7671 8.55968 22.4331C6.93425 21.8918 5.51787 21.0087 4.36426 19.8905Z" fill="currentColor"/>
<path d="M4.36426 19.8905L1.91432 19.3927L1.64191 20.7334L2.62423 21.6856L4.36426 19.8905ZM19.6359 19.9438L21.3666 21.7478L22.3522 20.8023L22.0891 19.4621L19.6359 19.9438ZM8.55968 22.4331L7.76984 24.805L7.7703 24.8052L8.55968 22.4331ZM6.8142 20.3883C7.33493 17.8254 9.50708 16 11.9948 16V11C6.97375 11 2.87678 14.6558 1.91432 19.3927L6.8142 20.3883ZM11.9948 16C14.4944 16 16.6758 17.8434 17.1827 20.4254L22.0891 19.4621C21.1524 14.6912 17.0402 11 11.9948 11V16ZM17.9052 18.1397C15.7083 20.2473 12.4465 21.0917 9.34906 20.0609L7.7703 24.8052C12.6908 26.4426 17.8787 25.0939 21.3666 21.7478L17.9052 18.1397ZM9.34951 20.0611C8.08793 19.641 6.99446 18.9583 6.10428 18.0954L2.62423 21.6856C4.04127 23.0591 5.78057 24.1426 7.76984 24.805L9.34951 20.0611Z" fill="currentColor" mask="url(#path-2-inside-1)"/>
<circle cx="12" cy="7.5" r="3.02753" fill="currentColor" stroke="currentColor" stroke-width="1.94494"/>
</svg>
